<svg xmlns="http://www.w3.org/2000/svg" viewBox="0 0 128 128">
	<path fill="#2891f9" d="M7.38 32.03L63.91 64.46L63.91 86.08L26.22 64.46L26.22 107.7L7.38 96.89L7.38 32.03Z" />
	<path fill="#2bbdf7" d="M26.22 107.7L26.22 64.46L45.07 75.27L45.07 96.89L26.22 107.7Z" />
	<path fill="#2b6def" d="M7.38 32.03L26.22 21.22L82.76 53.65L63.91 64.46L7.38 32.03Z" />
	<path fill="#2bbdf7" d="M63.91 64.46L82.76 53.65L82.76 75.27L63.91 86.08L63.91 64.46Z" />
	<path fill="#2891f9" d="M82.76 32.03L82.76 96.89L101.61 107.7L101.61 42.84L82.76 32.03Z" />
	<path fill="#2bbdf7" d="M120.45 32.03L101.6 42.84L101.6 107.7L120.45 96.89L120.45 32.03Z" />
</svg>