<svg version="1.2" xmlns="http://www.w3.org/2000/svg" viewBox="0 0 512 513" width="512" height="513">
	<title>logo-svg</title>
	<style>
		.s0 { fill: #1589d4 } 
		.s1 { fill: #7fdbff } 
	</style>
	<path id="Layer" class="s0" d="m179.8 447l-64.7 14.8c-65.6-45-108.7-120.5-108.7-206.1 0-44.1 11.4-85.4 31.5-121.4l63.6-14.5c-32 36.2-51.3 83.8-51.3 135.9 0 86.8 53.7 161 129.6 191.3zm326.2-191.3c0 45.2-12.1 87.6-33.1 124.2l-64.7 14.8c33.6-36.6 54-85.4 54-139 0-85.3-51.8-158.5-125.7-189.8l63.4-14.5c64.1 45.2 106.1 119.8 106.1 204.3z"/>
	<path id="Layer" class="s1" d="m360.5 371.3l-113.7 25.9-21.7-126.6-56.6 12.9 53.6 1.6-25.2 123.5-113.7 25.9 59.5-290.2 101.2-23.1c7.1-1.6 13.4 2.4 14.4 9.3l19.8 114.5 28.2-138 113.6-25.9-59.4 290.2z"/>
</svg>