<svg width="20" height="20" viewBox="0 0 508 508" fill="none" xmlns="http://www.w3.org/2000/svg">
<g filter="url(#filter0_d_383_785)">
<circle cx="254" cy="250" r="250" fill="#171717"/>
<path d="M163.895 347.269C164.13 347.506 164.394 347.743 164.629 347.98L173.902 334.682C181.591 319.43 184.584 305.51 184.672 293.664C184.554 287.326 183.674 281.047 182.09 274.946C180.974 271.274 180.153 267.483 179.624 263.662C179.624 263.633 179.624 263.573 179.624 263.514C179.272 260.967 179.037 258.361 178.92 255.755C177.306 213.759 209.645 177.775 251.141 175.406L250.847 175.139C260.737 174.517 275.145 176.709 287.236 173.51C299.767 169.927 311.153 162.967 320.191 153.371C320.631 152.897 321.131 152.483 321.659 152.127L330.169 139.955C294.543 115.018 247.531 108.177 204.392 125.976C136.662 153.875 104.206 231.943 131.879 300.298C138.804 317.386 148.811 332.254 161.019 344.485C161.958 345.433 162.897 346.351 163.866 347.269H163.895Z" fill="white"/>
<path d="M336.389 163.086C336.183 163.708 335.949 164.359 335.596 164.951C327.585 180.085 324.181 202.949 324.914 211.982C326.118 226.997 330.666 236.741 329.258 248.232C330.314 289.903 298.034 325.294 256.861 327.575C256.861 327.575 256.803 327.575 256.773 327.575C247.705 328.167 246.649 327.278 238.344 327.663C221.206 328.433 202.924 335.66 190.246 349.165L181.765 361.337C184.201 362.966 186.666 364.506 189.16 366.046C190.305 366.698 191.449 367.319 192.594 367.941C226.078 385.77 266.839 389.058 304.607 373.48C372.338 345.552 404.794 267.483 377.121 199.128C369.55 180.441 358.251 164.389 344.459 151.535L336.389 163.086Z" fill="white"/>
</g>
<defs>
<filter id="filter0_d_383_785" x="0" y="0" width="508" height="508" filterUnits="userSpaceOnUse" color-interpolation-filters="sRGB">
<feFlood flood-opacity="0" result="BackgroundImageFix"/>
<feColorMatrix in="SourceAlpha" type="matrix" values="0 0 0 0 0 0 0 0 0 0 0 0 0 0 0 0 0 0 127 0" result="hardAlpha"/>
<feOffset dy="4"/>
<feGaussianBlur stdDeviation="2"/>
<feComposite in2="hardAlpha" operator="out"/>
<feColorMatrix type="matrix" values="0 0 0 0 0 0 0 0 0 0 0 0 0 0 0 0 0 0 0.25 0"/>
<feBlend mode="normal" in2="BackgroundImageFix" result="effect1_dropShadow_383_785"/>
<feBlend mode="normal" in="SourceGraphic" in2="effect1_dropShadow_383_785" result="shape"/>
</filter>
</defs>
</svg>
