<svg xmlns="http://www.w3.org/2000/svg" viewBox="0 0 128 128">
	<path fill="#1589d4" d="M15 63.36C15 63.36 15 63.36 15 63.36C15 63.36 15 63.36 15 63.35M15 63.36C15 78.26 23.01 92.42 35.42 102.31C16.55 92.87 4 75.06 4 54.88C4 24.99 29.37 0 64.16 0C89.79 0 111.26 15.16 120.8 35.09C110.67 21.2 93.52 11.6 73.56 11.6C41.43 11.6 15 35.76 15 63.36ZM92.04 25.54C112.47 33.94 123.45 52.79 123.45 72.97C123.45 102.86 98.08 127.85 63.29 127.85C37.66 127.85 16.19 112.69 6.66 92.76C16.78 106.66 33.93 116.25 53.9 116.25C86.02 116.25 112.45 92.09 112.45 64.49C112.45 49.6 106.17 34.17 92.04 25.54ZM49.88 37.78L92.01 37.78C92.01 37.78 85.63 48.84 79.16 48.84L70.05 48.84L70.05 80.56C70.05 90.64 57.87 95.11 57.87 95.11L57.83 48.84L35.52 48.84C35.52 48.84 39.94 37.77 49.88 37.77L49.88 37.78Z" />
</svg>