<svg xmlns="http://www.w3.org/2000/svg" viewBox="0 0 128 128">
	<path fill="#1589d4" d="M40.88 8.92C42.38 8.69 45.93 9 48.38 9.58C54.1 10.93 59.3 14.39 64.85 20.53L66.32 22.16L68.43 21.83C77.32 20.41 86.36 21.54 93.92 25.01C96 25.96 99.28 27.86 99.69 28.35C99.82 28.51 100.06 29.51 100.22 30.58C100.78 34.28 100.5 37.12 99.36 39.24C98.74 40.39 98.71 40.75 99.13 41.74C99.46 42.53 100.39 43.11 101.3 43.11C103.18 43.11 105.2 40.09 106.14 35.89L106.52 34.22L107.25 35.05C111.3 39.6 114.47 45.81 115.02 50.24L115.16 51.39L114.48 50.34C113.31 48.54 112.14 47.31 110.63 46.32C107.92 44.53 105.05 43.93 97.45 43.53C90.58 43.17 86.7 42.59 82.85 41.34C76.29 39.22 72.99 36.39 65.2 26.24C61.75 21.73 59.61 19.23 57.48 17.22C52.65 12.66 47.91 10.26 41.83 9.33C40.16 9.07 40.09 9.04 40.88 8.92ZM102.65 12.56C102.98 11.84 103.29 11.25 103.34 11.25C103.38 11.25 103.24 11.78 103.02 12.43C102.42 14.2 102.32 16.61 102.73 19.42C103.26 22.99 103.56 23.51 107.35 27.36C109.13 29.16 111.2 31.44 111.95 32.42L113.31 34.2L111.95 32.93C110.28 31.38 106.45 28.34 105.6 27.91C105.03 27.62 104.95 27.62 104.6 27.97C104.27 28.29 104.21 28.77 104.16 31.04C104.09 34.58 103.61 36.85 102.44 39.12C101.8 40.34 101.7 40.08 102.28 38.7C102.7 37.66 102.75 37.21 102.74 33.78C102.74 26.9 101.92 25.25 97.1 22.42C95.88 21.7 93.86 20.66 92.63 20.12C91.39 19.57 90.41 19.09 90.44 19.06C90.58 18.92 95.28 20.28 97.17 21.01C99.98 22.08 100.45 22.22 100.79 22.09C101.02 22.01 101.13 21.34 101.24 19.39C101.41 16.37 101.82 14.38 102.65 12.56ZM40.04 14.11L40.18 12.47L40.95 12.61C42.4 12.87 44.9 13.79 46.07 14.5C49.27 16.44 50.66 18.99 52.07 25.53C52.49 27.45 53.03 29.62 53.28 30.35C53.68 31.53 55.2 34.29 56.44 36.09C57.33 37.38 56.74 37.99 54.77 37.82C51.77 37.55 47.7 34.75 45.07 31.16C41.68 26.53 39.59 19.42 40.04 14.11ZM75.73 44.54C75.73 43.18 75.78 42.06 75.84 42.06C75.89 42.06 76.51 42.51 77.2 43.06C80.41 45.62 84 46.71 93.95 48.16C99.8 49 103.1 49.69 106.14 50.69C115.8 53.88 121.77 60.34 123.2 69.14C123.61 71.7 123.37 76.49 122.7 79.02C122.17 81.01 120.55 84.61 120.12 84.75C120 84.79 119.88 84.34 119.85 83.72C119.69 80.42 118.01 77.2 115.19 74.79C111.98 72.05 107.67 69.87 97.13 65.65C81.31 59.32 75.73 53.82 75.73 44.54ZM85.26 64.95L84.85 63.76L85.6 64.59C86.64 65.75 87.46 67.23 88.16 69.21C88.69 70.71 88.75 71.16 88.74 73.61C88.74 76.01 88.67 76.51 88.18 77.87C87.41 80.01 86.45 81.52 84.84 83.15C81.95 86.07 78.24 87.69 72.87 88.37C71.94 88.48 69.22 88.68 66.83 88.8C60.81 89.11 56.85 89.76 53.29 91C52.78 91.18 52.32 91.29 52.28 91.24C52.13 91.1 54.56 89.66 56.56 88.7C59.38 87.35 62.19 86.61 68.49 85.57C71.6 85.06 74.81 84.43 75.63 84.18C83.33 81.84 87.29 75.78 86.02 68.28C85.82 67.11 85.48 65.61 85.26 64.95ZM91.84 68.21C91.97 67.78 92.16 67.42 92.28 67.42C92.4 67.42 92.9 67.69 93.39 68.02C94.35 68.66 96.3 69.76 101.48 72.56C107.94 76.06 111.62 78.77 114.12 81.87C116.32 84.58 117.68 87.67 118.33 91.44C118.7 93.57 118.48 98.71 117.93 100.86C116.19 107.63 112.16 112.95 106.4 116.06C105.56 116.51 104.8 116.89 104.72 116.89C104.63 116.89 104.94 116.11 105.4 115.16C107.34 111.14 107.56 107.22 106.09 102.87C105.2 100.2 103.37 96.94 99.68 91.44C95.38 85.04 94.33 83.34 93.28 81.09C91.17 76.59 90.69 72.26 91.84 68.21ZM53.67 95.82C56.54 95.36 61.32 95.54 63.97 96.22C68.23 97.3 72.04 99.73 74.02 102.62C75.96 105.44 76.79 107.9 77.65 113.38C77.99 115.54 78.36 117.71 78.48 118.2C79.13 121.04 80.39 123.31 81.96 124.45C84.44 126.26 88.73 126.37 92.94 124.73C93.65 124.46 94.27 124.27 94.32 124.31C94.47 124.46 92.35 125.87 90.85 126.61C88.84 127.61 87.24 128 85.11 128C81.25 128 78.05 126.05 75.37 122.07C74.85 121.29 73.67 118.94 72.75 116.86C69.92 110.46 68.53 108.51 65.25 106.38C62.4 104.52 58.72 104.19 55.96 105.54C52.32 107.31 51.31 111.93 53.91 114.85C54.95 116.02 56.88 117.02 58.45 117.21C61.4 117.58 63.94 115.35 63.94 112.39C63.94 110.46 63.2 109.36 61.33 108.52C58.77 107.38 56.02 108.72 56.03 111.11C56.04 112.12 56.48 112.76 57.51 113.23C58.17 113.52 58.19 113.54 57.65 113.43C55.3 112.95 54.75 110.14 56.64 108.27C58.9 106.03 63.59 107.02 65.19 110.08C65.87 111.36 65.95 113.92 65.36 115.47C64.04 118.92 60.2 120.74 56.3 119.75C53.64 119.08 52.56 118.35 49.36 115.07C43.8 109.38 41.64 108.27 33.62 107.03L32.09 106.79L33.83 105.33C39.71 100.4 47.01 96.9 53.67 95.82ZM7.74 3.41C6.18 1.53 4.95 0 5 0C5.23 0 41.35 31.08 45.09 35.42L46.12 36.61L46.03 38.47C45.91 40.93 45.14 42.56 43.29 44.25C41.16 46.2 38.57 47.25 34.5 47.8C32.01 48.14 31.1 48.51 30.09 49.62C29.12 50.68 28.75 51.99 28.49 55.34C28.07 60.52 27.46 62.71 25 67.84C22.61 72.81 22.13 74.68 22.55 77.34C23.05 80.58 24.89 82.93 29.2 85.86C32.49 88.09 33.98 89.53 34.8 91.27C35.3 92.33 35.37 92.72 35.36 94.57C35.34 97.4 34.88 98.54 32.94 100.6C29.79 103.94 24.19 106.66 17.3 108.2C14.41 108.85 14.29 108.85 14.29 108.19C14.29 107.36 13.22 105.23 11.36 102.37C9.2 99.05 8.36 97.39 7.55 94.88C6.63 92.01 6.37 90.08 6.51 87.08C6.63 84.24 6.94 82.98 8.08 80.73C8.98 78.95 9.56 78.14 13.14 73.71C19.24 66.15 21.44 61.73 22.22 55.48C22.92 49.9 23.89 47.2 26.05 44.8C27.35 43.36 27.64 42.81 27.64 41.77C27.64 41.25 28.9 39.93 27.32 36.32C17.58 19 17.58 18.99 17.86 19.25C17.99 19.37 22.49 26.25 27.87 34.56C31.75 41.39 32.17 41.27 32.93 41.98C32.93 41.98 33.38 42.48 34.68 42.48C35.83 42.48 38.13 41.84 39.25 41.21C41.26 40.07 41.7 38.62 40.52 37.01C39.1 35.06 26.31 25.81 7.74 3.41ZM15.37 86.14C14.03 85.25 11.96 85.67 11.96 86.82C11.96 87.17 12.15 87.43 12.59 87.65C13.33 88.03 13.39 88.46 12.8 89.33C12.21 90.21 12.26 90.99 12.94 91.51C14.03 92.36 15.58 91.9 16.39 90.47C17.23 88.98 16.78 87.07 15.37 86.14ZM53.6 49.24C55.88 50.39 57.54 53.03 57.18 54.93C56.74 57.25 52.96 59.1 48.61 59.13C46.39 59.15 45.57 58.85 44.72 57.72C44.2 57.03 44 54.77 44.35 53.48C44.92 51.37 46.78 49.36 48.69 48.78C49.9 48.4 52.42 48.64 53.6 49.24ZM53.78 52.73C54.45 51.78 54.15 50.76 53.01 50.06C50.84 48.75 47.55 49.84 47.55 51.88C47.55 52.89 49.27 54 50.84 54C51.88 54 53.31 53.38 53.78 52.73Z" />
</svg>