<svg fill="none" xmlns="http://www.w3.org/2000/svg" viewBox="4.5 0.5 20 20">
	<g>
		<rect x="4.5" y="0.5" width="20" height="20" rx="10" fill="black">
		</rect>
		<path fill-rule="evenodd" clip-rule="evenodd" d="M16.7165 7.09604L14.7561 5.95984C14.1834 6.65367 13.7538 7.44412 13.479 8.28347C14.9878 8.60011 16.3207 9.39522 17.3114 10.5058C17.8993 11.1647 18.3661 11.9331 18.6781 12.7771V8.23224H18.677L16.7165 7.09604Z" fill="white">
		</path>
		<path opacity="0.3" fill-rule="evenodd" clip-rule="evenodd" d="M14.1601 6.80035C14.1647 6.79336 14.1694 6.78638 14.1729 6.77939L14.1601 6.80035Z" fill="white">
		</path>
		<path fill-rule="evenodd" clip-rule="evenodd" d="M13.4767 12.7258C12.6153 12.9075 11.7177 12.9296 10.8329 12.7782L12.7945 13.9144L14.7561 15.0506L16.7177 13.9144L18.6793 12.7782C18.3673 11.9331 17.9005 11.1647 17.3126 10.507C16.2858 11.6607 14.9319 12.4208 13.479 12.7258H13.4767Z" fill="white">
		</path>
		<path fill-rule="evenodd" clip-rule="evenodd" d="M10.8329 8.23224V12.7782C11.7177 12.9296 12.6153 12.9074 13.4767 12.7258C12.9948 11.2567 13.0157 9.70023 13.4779 8.28347C13.7526 7.44412 14.1822 6.65367 14.7549 5.95984L12.7934 7.09604L10.8329 8.23224Z" fill="white">
		</path>
	</g>
</svg>
